<!DOCTYPE svg>
<svg xmlns="http://www.w3.org/2000/svg" id="svg" version="1.1" height="881" width="1665" class="s-PS9EmLP6S-MV"><style class="s-PS9EmLP6S-MV">.static {
            cursor: not-allowed;
        }
        .draggable .draggable-group{
            cursor: move;
        }
         *{}</style><script type="text/javascript" class="s-PS9EmLP6S-MV"></script><defs id="defs5040" class="s-PS9EmLP6S-MV"></defs><g class="s-PS9EmLP6S-MV"><text x="832.5" y="40" dominant-baseline="middle" text-anchor="middle" class="s-PS9EmLP6S-MV" style="font-family: Roboto, sans-serif;"></text></g><g class="s-PS9EmLP6S-MV">
         <g class="s-PS9EmLP6S-MV"><text x="832.5" y="80" dominant-baseline="middle" text-anchor="middle" class="s-PS9EmLP6S-MV" style="font-family: Roboto, sans-serif;"></text></g><g transform="translate(0,0)" id="draw-line" class="s-PS9EmLP6S-MV" style="display: inline;"><path d="M 296.25 100.000626 L 296.25 361.4125 L 282.5 361.4125 L 282.5 100.000626 Z 
M 403.75 100.000626 L 403.75 361.4125 L 417.5 361.4125 L 417.5 100.000626 Z 
" id="path5046" class="s-PS9EmLP6S-MV" style="opacity: 1; fill: rgb(135, 135, 135); stroke: black; stroke-width: 0; stroke-linecap: round; stroke-linejoin: round; stroke-miterlimit: 4; stroke-dasharray: none; stroke-opacity: 1; paint-order: stroke;"></path></g><g transform="translate(0,0)" id="draw-line" class="s-PS9EmLP6S-MV" style="display: inline;"><path d="M 315 224.48215 L 315 535.6875 A 235 235 0 0, 0 509.19266 767.1173 L 507.67325 775.7344 A 243.75 243.75 0 0, 1 306.25 535.6875 L 306.25 361.4125 L 298.25 361.4125 L 296.25 224.48215 Z 
M 385 224.48215 L 385 535.6875 A 165 165 0 0, 0 521.348 698.1808 L 522.8675 689.5637 A 156.25 156.25 0 0, 1 393.75 535.6875 L 393.75 361.4125 L 401.75 361.4125 L 403.75 224.48215 Z 
" id="path5046" class="s-PS9EmLP6S-MV" style="opacity: 1; fill: rgb(135, 135, 135); stroke: black; stroke-width: 0; stroke-linecap: round; stroke-linejoin: round; stroke-miterlimit: 4; stroke-dasharray: none; stroke-opacity: 1; paint-order: stroke;"></path></g><g transform="translate(0,0)" id="draw-line" class="s-PS9EmLP6S-MV" style="display: inline;"><path d="M 379.5551 678.70776 A 222.5 222.5 0 0, 0 550 758.1875 L 929.67053 758.1875 L 929.67053 766.3125 L 550 766.3125 A 230.625 230.625 0 0, 1 509.9524 762.8088 L 509.53998 765.1477 A 233 233 0 0, 1 371.51166 685.45703 Z 
M 414.0271 649.7823 A 177.5 177.5 0 0, 0 550 713.1875 L 929.67053 713.1875 L 929.67053 705.0625 L 550 705.0625 A 169.375 169.375 0 0, 1 520.5883 702.4893 L 521.00073 700.1504 A 167 167 0 0, 1 422.0706 643.033 Z 
" id="path5046" class="s-PS9EmLP6S-MV" style="opacity: 1; fill: rgb(135, 135, 135); stroke: black; stroke-width: 0; stroke-linecap: round; stroke-linejoin: round; stroke-miterlimit: 4; stroke-dasharray: none; stroke-opacity: 1; paint-order: stroke;"></path></g><g transform="translate(0,0)" id="draw-line" class="s-PS9EmLP6S-MV" style="display: inline;"><path d="M 401.75 100 L 401.75 361.4125 L 403.75 361.4125 L 403.75 100 Z 
M 298.25 100 L 298.25 361.4125 L 296.25 361.4125 L 296.25 100 Z 
" id="path5046" class="s-PS9EmLP6S-MV" style="opacity: 1; fill: none; stroke: black; stroke-width: 1; stroke-linecap: round; stroke-linejoin: round; stroke-miterlimit: 4; stroke-dasharray: none; stroke-opacity: 1; paint-order: stroke;"></path></g><g transform="translate(0,0)" id="draw-line" class="s-PS9EmLP6S-MV" style="display: inline;"><path d="M 383 100 L 383 535.6875 A 167 167 0 0, 0 521.00073 700.1504 L 521.348 698.1808 A 165 165 0 0, 1 385 535.6875 L 385 100 Z 
M 317 100 L 317 535.6875 A 233 233 0 0, 0 509.53998 765.1477 L 509.19266 767.1173 A 235 235 0 0, 1 315 535.6875 L 315 100 Z 
" id="path5046" class="s-PS9EmLP6S-MV" style="opacity: 1; fill: none; stroke: black; stroke-width: 1; stroke-linecap: round; stroke-linejoin: round; stroke-miterlimit: 4; stroke-dasharray: none; stroke-opacity: 1; paint-order: stroke;"></path></g><g transform="translate(0,0)" id="draw-line" class="s-PS9EmLP6S-MV" style="display: inline;"><path d="M 373.227 566.85736 A 179.5 179.5 0 0, 0 550 715.1875 L 929.67053 715.1875 L 929.67053 713.1875 L 550 713.1875 A 177.5 177.5 0 0, 1 375.19662 566.5101 Z 
M 332.8499 573.9769 A 220.5 220.5 0 0, 0 550 756.1875 L 929.67053 756.1875 L 929.67053 758.1875 L 550 758.1875 A 222.5 222.5 0 0, 1 330.88028 574.3242 Z 
" id="path5046" class="s-PS9EmLP6S-MV" style="opacity: 1; fill: none; stroke: black; stroke-width: 1; stroke-linecap: round; stroke-linejoin: round; stroke-miterlimit: 4; stroke-dasharray: none; stroke-opacity: 1; paint-order: stroke;"></path></g><g transform="translate(0,0)" id="draw-line" class="s-PS9EmLP6S-MV" style="display: inline;"><path d="M 401.75 100 L 401.75 361.4125 L 403.75 361.4125 L 403.75 100 Z 
M 298.25 100 L 298.25 361.4125 L 296.25 361.4125 L 296.25 100 Z 
" id="path5046" class="s-PS9EmLP6S-MV" style="opacity: 1; fill: black; stroke: black; stroke-width: 0; stroke-linecap: round; stroke-linejoin: round; stroke-miterlimit: 4; stroke-dasharray: none; stroke-opacity: 1; paint-order: stroke;"></path></g><g transform="translate(0,0)" id="draw-line" class="s-PS9EmLP6S-MV" style="display: inline;"><path d="M 383 100 L 383 535.6875 A 167 167 0 0, 0 521.00073 700.1504 L 521.348 698.1808 A 165 165 0 0, 1 385 535.6875 L 385 100 Z 
M 317 100 L 317 535.6875 A 233 233 0 0, 0 509.53998 765.1477 L 509.19266 767.1173 A 235 235 0 0, 1 315 535.6875 L 315 100 Z 
" id="path5046" class="s-PS9EmLP6S-MV" style="opacity: 1; fill: black; stroke: black; stroke-width: 0; stroke-linecap: round; stroke-linejoin: round; stroke-miterlimit: 4; stroke-dasharray: none; stroke-opacity: 1; paint-order: stroke;"></path></g><g transform="translate(0,0)" id="draw-line" class="s-PS9EmLP6S-MV" style="display: inline;"><path d="M 373.227 566.85736 A 179.5 179.5 0 0, 0 550 715.1875 L 929.67053 715.1875 L 929.67053 713.1875 L 550 713.1875 A 177.5 177.5 0 0, 1 375.19662 566.5101 Z 
M 332.8499 573.9769 A 220.5 220.5 0 0, 0 550 756.1875 L 929.67053 756.1875 L 929.67053 758.1875 L 550 758.1875 A 222.5 222.5 0 0, 1 330.88028 574.3242 Z 
" id="path5046" class="s-PS9EmLP6S-MV" style="opacity: 1; fill: black; stroke: black; stroke-width: 0; stroke-linecap: round; stroke-linejoin: round; stroke-miterlimit: 4; stroke-dasharray: none; stroke-opacity: 1; paint-order: stroke;"></path></g><g transform="translate(0,0)" id="draw-line-outline" class="s-PS9EmLP6S-MV" style="display: inline;"><path d="M 282.5 100 L 282.5 361.4125 L 306.25 361.4125 L 306.25 535.6875 A 243.75 243.75 0 0, 0 507.67325 775.7344 L 509.9524 762.8088 A 230.625 230.625 0 0, 0 550 766.3125 L 929.67053 766.3125 L 929.67053 766.3125 M 417.5 100 L 417.5 361.4125 L 393.75 361.4125 L 393.75 535.6875 A 156.25 156.25 0 0, 0 522.8675 689.5637 L 520.5883 702.4893 A 169.375 169.375 0 0, 0 550 705.0625 L 929.67053 705.0625 L 929.67053 705.0625 " id="path5046" class="s-PS9EmLP6S-MV" style="opacity: 1; fill: none; stroke: black; stroke-width: 1; stroke-linecap: round; stroke-linejoin: round; stroke-miterlimit: 4; stroke-dasharray: none; stroke-opacity: 1; paint-order: stroke;"></path></g><g transform="translate(0,0)" id="draw-line" class="s-PS9EmLP6S-MV" style="display: inline;"><path d="M 332.8499 573.9769 A 177.5 177.5 0 0, 1 332.00455 568.8271 L 319.64655 570.70575 A 222.5 222.5 0 0, 0 320.5398 576.1475 L 332.8499 573.9769 L 319.64655 570.70575 M 320.5398 576.1475 L 332.00455 568.8271 M 373.227 566.85736 A 177.5 177.5 0 0, 1 372.25732 560.74316 L 384.63495 558.99835 A 222.5 222.5 0 0, 0 385.5371 564.68677 L 373.227 566.85736 L 384.63495 558.99835 M 385.5371 564.68677 L 372.25732 560.74316 " id="path5046" class="s-PS9EmLP6S-MV" style="opacity: 1; fill: none; stroke: black; stroke-width: 1; stroke-linecap: round; stroke-linejoin: round; stroke-miterlimit: 4; stroke-dasharray: none; stroke-opacity: 1; paint-order: stroke;"></path></g><g transform="translate(0,0)" id="draw-line" class="s-PS9EmLP6S-MV" style="display: inline;"><path d="" id="path5046" class="s-PS9EmLP6S-MV" style="opacity: 1; fill: black; stroke: black; stroke-width: 1; stroke-linecap: round; stroke-linejoin: round; stroke-miterlimit: 4; stroke-dasharray: none; stroke-opacity: 1; paint-order: stroke;"></path></g><g transform="translate(0,0)" id="draw-line" class="s-PS9EmLP6S-MV" style="display: inline;"><path d="M 401.75 100 M 403.75 361.4125 L 417.5 361.4125 L 403.75 354.5375 Z 
Z 
M 298.25 100 M 296.25 361.4125 L 282.5 361.4125 L 296.25 354.5375 Z 
Z 
M 522.8675 689.5637 L 521.348 698.1808 A 165 165 0 0, 1 515.29266 696.9959 Z 
Z 
M 507.67325 775.7344 L 509.19266 767.1173 A 235 235 0 0, 1 503.88373 766.11816 Z 
Z 
M 373.227 566.85736 M 929.67053 713.1875 L 929.67053 705.0625 L 925.60803 713.1875 Z 
Z 
M 332.8499 573.9769 M 929.67053 758.1875 L 929.67053 766.3125 L 925.60803 758.1875 Z 
Z 
" id="path5046" class="s-PS9EmLP6S-MV" style="opacity: 1; fill: black; stroke: black; stroke-width: 1; stroke-linecap: round; stroke-linejoin: round; stroke-miterlimit: 4; stroke-dasharray: none; stroke-opacity: 1; paint-order: stroke;"></path></g><g transform="translate(0,0)" id="draw-line" class="s-PS9EmLP6S-MV" style="display: inline;"><path d="" id="path5046" class="s-PS9EmLP6S-MV" style="opacity: 1; fill: none; stroke: black; stroke-width: 1; stroke-linecap: round; stroke-linejoin: round; stroke-miterlimit: 4; stroke-dasharray: none; stroke-opacity: 1; paint-order: stroke;"></path></g><g transform="translate(0,0)" id="draw-line" class="s-PS9EmLP6S-MV" style="display: inline;"><path d="" id="path5046" class="s-PS9EmLP6S-MV" style="opacity: 1; fill: none; stroke: black; stroke-width: 1; stroke-linecap: round; stroke-linejoin: round; stroke-miterlimit: 4; stroke-dasharray: none; stroke-opacity: 1; paint-order: stroke;"></path></g><g transform="translate(0,0)" id="draw-line" class="s-PS9EmLP6S-MV" style="display: inline;"><path d="" id="path5046" class="s-PS9EmLP6S-MV" style="opacity: 1; fill: none; stroke: black; stroke-width: 1; stroke-linecap: round; stroke-linejoin: round; stroke-miterlimit: 4; stroke-dasharray: none; stroke-opacity: 1; paint-order: stroke;"></path></g><g transform="translate(0,0)" id="draw-line" class="s-PS9EmLP6S-MV" style="display: inline;"><path d="M 929.67053 766.3125 L 1054.1527 766.3125 L 1054.1527 735.6875 M 929.67053 705.0625 L 1054.1527 705.0625 L 1054.1527 735.6875 " id="path5046" class="s-PS9EmLP6S-MV" style="opacity: 1; fill: none; stroke: black; stroke-width: 1; stroke-linecap: round; stroke-linejoin: round; stroke-miterlimit: 4; stroke-dasharray: 4; stroke-opacity: 1; paint-order: stroke;"></path></g>
</svg>