<!DOCTYPE svg>
<svg xmlns="http://www.w3.org/2000/svg" id="svg" version="1.1" height="881" width="1665" class="s-PS9EmLP6S-MV"><style class="s-PS9EmLP6S-MV">.static {
            cursor: not-allowed;
        }
        .draggable .draggable-group{
            cursor: move;
        }
         *{}</style><script type="text/javascript" class="s-PS9EmLP6S-MV"></script><defs id="defs5040" class="s-PS9EmLP6S-MV"></defs><g class="s-PS9EmLP6S-MV"><text x="832.5" y="40" dominant-baseline="middle" text-anchor="middle" class="s-PS9EmLP6S-MV" style="font-family: Roboto, sans-serif;"></text></g><g class="s-PS9EmLP6S-MV"><text x="832.5" y="80" dominant-baseline="middle" text-anchor="middle" class="s-PS9EmLP6S-MV" style="font-family: Roboto, sans-serif;"></text></g><g transform="translate(0,0)" id="draw-line" class="s-PS9EmLP6S-MV" style="display: inline;"><path d="M 283.125 100.00043 L 283.125 193.49167 L 262.5 193.49167 L 262.5 100.00043 Z 
M 416.875 100.00043 L 416.875 193.49167 L 437.5 193.49167 L 437.5 100.00043 Z 
" id="path5046" class="s-PS9EmLP6S-MV" style="opacity: 1; fill: rgb(135, 135, 135); stroke: black; stroke-width: 0; stroke-linecap: round; stroke-linejoin: round; stroke-miterlimit: 4; stroke-dasharray: none; stroke-opacity: 1; paint-order: stroke;"></path></g><g transform="translate(0,0)" id="draw-line" class="s-PS9EmLP6S-MV" style="display: inline;"><path d="M 301.875 100.00043 L 301.875 329.47955 L 288.75 329.47955 L 288.75 193.49167 L 285.125 193.49167 L 283.125 100.00043 Z 
M 398.125 100.00043 L 398.125 329.47955 L 411.25 329.47955 L 411.25 193.49167 L 414.875 193.49167 L 416.875 100.00043 Z 
" id="path5046" class="s-PS9EmLP6S-MV" style="opacity: 1; fill: rgb(135, 135, 135); stroke: black; stroke-width: 0; stroke-linecap: round; stroke-linejoin: round; stroke-miterlimit: 4; stroke-dasharray: none; stroke-opacity: 1; paint-order: stroke;"></path></g><g transform="translate(0,0)" id="draw-line" class="s-PS9EmLP6S-MV" style="display: inline;"><path d="M 311.875 269.98486 L 311.875 567.4584 A 204.79166 204.79166 0 0, 0 414.2708 744.8132 L 411.4583 749.6846 A 210.41666 210.41666 0 0, 1 306.25 567.4584 L 306.25 329.47955 L 303.875 329.47955 L 301.875 269.98486 Z 
M 388.125 269.98486 L 388.125 567.4584 A 128.54166 128.54166 0 0, 0 452.3958 678.7787 L 455.2083 673.90735 A 122.91666 122.91666 0 0, 1 393.75 567.4584 L 393.75 329.47955 L 396.125 329.47955 L 398.125 269.98486 Z 
" id="path5046" class="s-PS9EmLP6S-MV" style="opacity: 1; fill: rgb(135, 135, 135); stroke: black; stroke-width: 0; stroke-linecap: round; stroke-linejoin: round; stroke-miterlimit: 4; stroke-dasharray: none; stroke-opacity: 1; paint-order: stroke;"></path></g><g transform="translate(0,0)" id="draw-line" class="s-PS9EmLP6S-MV" style="display: inline;"><path d="M 359.58252 681.5867 A 194.16666 194.16666 0 0, 0 379.37006 704.75494 L 390.08942 708.0366 L 380.97253 718.162 A 202.79166 202.79166 0 0, 1 352.60474 686.6563 Z 
M 404.07843 649.2585 A 139.16666 139.16666 0 0, 0 418.26093 665.8641 L 420.20032 674.5951 L 429.3172 664.4697 A 130.54166 130.54166 0 0, 1 411.0562 644.18884 Z 
" id="path5046" class="s-PS9EmLP6S-MV" style="opacity: 1; fill: rgb(135, 135, 135); stroke: black; stroke-width: 0; stroke-linecap: round; stroke-linejoin: round; stroke-miterlimit: 4; stroke-dasharray: none; stroke-opacity: 1; paint-order: stroke;"></path></g><g transform="translate(0,0)" id="draw-line" class="s-PS9EmLP6S-MV" style="display: inline;"><path d="M 390.08942 708.0366 A 189.16666 189.16666 0 0, 0 516.6666 756.625 L 1079.7415 756.625 L 1079.7415 767.875 L 516.6666 767.875 A 200.41666 200.41666 0 0, 1 416.4583 741.0243 L 415.2708 743.0811 A 202.79166 202.79166 0 0, 1 380.97253 718.162 Z 
M 420.20032 674.5951 A 144.16666 144.16666 0 0, 0 516.6666 711.625 L 1079.7415 711.625 L 1079.7415 700.375 L 516.6666 700.375 A 132.91666 132.91666 0 0, 1 450.2083 682.56757 L 451.3958 680.51074 A 130.54166 130.54166 0 0, 1 429.3172 664.4697 Z 
" id="path5046" class="s-PS9EmLP6S-MV" style="opacity: 1; fill: rgb(135, 135, 135); stroke: black; stroke-width: 0; stroke-linecap: round; stroke-linejoin: round; stroke-miterlimit: 4; stroke-dasharray: none; stroke-opacity: 1; paint-order: stroke;"></path></g><g transform="translate(0,0)" id="draw-line" class="s-PS9EmLP6S-MV" style="display: inline;"><path d="M 414.875 100 L 414.875 193.49167 L 416.875 193.49167 L 416.875 100 Z 
M 285.125 100 L 285.125 193.49167 L 283.125 193.49167 L 283.125 100 Z 
" id="path5046" class="s-PS9EmLP6S-MV" style="opacity: 1; fill: none; stroke: black; stroke-width: 1; stroke-linecap: round; stroke-linejoin: round; stroke-miterlimit: 4; stroke-dasharray: none; stroke-opacity: 1; paint-order: stroke;"></path></g><g transform="translate(0,0)" id="draw-line" class="s-PS9EmLP6S-MV" style="display: inline;"><path d="M 396.125 100 L 396.125 329.47955 L 398.125 329.47955 L 398.125 100 Z 
M 303.875 100 L 303.875 329.47955 L 301.875 329.47955 L 301.875 100 Z 
" id="path5046" class="s-PS9EmLP6S-MV" style="opacity: 1; fill: none; stroke: black; stroke-width: 1; stroke-linecap: round; stroke-linejoin: round; stroke-miterlimit: 4; stroke-dasharray: none; stroke-opacity: 1; paint-order: stroke;"></path></g><g transform="translate(0,0)" id="draw-line" class="s-PS9EmLP6S-MV" style="display: inline;"><path d="M 386.125 100 L 386.125 567.4584 A 130.54166 130.54166 0 0, 0 451.3958 680.51074 L 452.3958 678.7787 A 128.54166 128.54166 0 0, 1 388.125 567.4584 L 388.125 100 Z 
M 313.875 100 L 313.875 567.4584 A 202.79166 202.79166 0 0, 0 415.2708 743.0811 L 414.2708 744.8132 A 204.79166 204.79166 0 0, 1 311.875 567.4584 L 311.875 100 Z 
" id="path5046" class="s-PS9EmLP6S-MV" style="opacity: 1; fill: none; stroke: black; stroke-width: 1; stroke-linecap: round; stroke-linejoin: round; stroke-miterlimit: 4; stroke-dasharray: none; stroke-opacity: 1; paint-order: stroke;"></path></g><g transform="translate(0,0)" id="draw-line" class="s-PS9EmLP6S-MV" style="display: inline;"><path d="M 375.5 100 L 375.5 567.4584 A 141.16666 141.16666 0 0, 0 416.84674 667.27826 L 418.86206 676.08136 L 420.20032 674.5951 L 418.26093 665.8641 A 139.16666 139.16666 0 0, 1 377.5 567.4584 L 377.5 100 Z 
M 324.5 100 L 324.5 567.4584 A 192.16666 192.16666 0 0, 0 380.7843 703.3407 L 391.4277 706.5503 L 390.08942 708.0366 L 379.37006 704.75494 A 194.16666 194.16666 0 0, 1 322.5 567.4584 L 322.5 100 Z 
" id="path5046" class="s-PS9EmLP6S-MV" style="opacity: 1; fill: none; stroke: black; stroke-width: 1; stroke-linecap: round; stroke-linejoin: round; stroke-miterlimit: 4; stroke-dasharray: none; stroke-opacity: 1; paint-order: stroke;"></path></g><g transform="translate(0,0)" id="draw-line" class="s-PS9EmLP6S-MV" style="display: inline;"><path d="M 418.86206 676.08136 A 146.16666 146.16666 0 0, 0 516.6666 713.625 L 1079.7415 713.625 L 1079.7415 711.625 L 516.6666 711.625 A 144.16666 144.16666 0 0, 1 420.20032 674.5951 Z 
M 391.4277 706.5503 A 187.16666 187.16666 0 0, 0 516.6666 754.625 L 1079.7415 754.625 L 1079.7415 756.625 L 516.6666 756.625 A 189.16666 189.16666 0 0, 1 390.08942 708.0366 Z 
" id="path5046" class="s-PS9EmLP6S-MV" style="opacity: 1; fill: none; stroke: black; stroke-width: 1; stroke-linecap: round; stroke-linejoin: round; stroke-miterlimit: 4; stroke-dasharray: none; stroke-opacity: 1; paint-order: stroke;"></path></g><g transform="translate(0,0)" id="draw-line" class="s-PS9EmLP6S-MV" style="display: inline;"><path d="M 414.875 100 L 414.875 193.49167 L 416.875 193.49167 L 416.875 100 Z 
M 285.125 100 L 285.125 193.49167 L 283.125 193.49167 L 283.125 100 Z 
" id="path5046" class="s-PS9EmLP6S-MV" style="opacity: 1; fill: black; stroke: black; stroke-width: 0; stroke-linecap: round; stroke-linejoin: round; stroke-miterlimit: 4; stroke-dasharray: none; stroke-opacity: 1; paint-order: stroke;"></path></g><g transform="translate(0,0)" id="draw-line" class="s-PS9EmLP6S-MV" style="display: inline;"><path d="M 396.125 100 L 396.125 329.47955 L 398.125 329.47955 L 398.125 100 Z 
M 303.875 100 L 303.875 329.47955 L 301.875 329.47955 L 301.875 100 Z 
" id="path5046" class="s-PS9EmLP6S-MV" style="opacity: 1; fill: black; stroke: black; stroke-width: 0; stroke-linecap: round; stroke-linejoin: round; stroke-miterlimit: 4; stroke-dasharray: none; stroke-opacity: 1; paint-order: stroke;"></path></g><g transform="translate(0,0)" id="draw-line" class="s-PS9EmLP6S-MV" style="display: inline;"><path d="M 386.125 100 L 386.125 567.4584 A 130.54166 130.54166 0 0, 0 451.3958 680.51074 L 452.3958 678.7787 A 128.54166 128.54166 0 0, 1 388.125 567.4584 L 388.125 100 Z 
M 313.875 100 L 313.875 567.4584 A 202.79166 202.79166 0 0, 0 415.2708 743.0811 L 414.2708 744.8132 A 204.79166 204.79166 0 0, 1 311.875 567.4584 L 311.875 100 Z 
" id="path5046" class="s-PS9EmLP6S-MV" style="opacity: 1; fill: black; stroke: black; stroke-width: 0; stroke-linecap: round; stroke-linejoin: round; stroke-miterlimit: 4; stroke-dasharray: none; stroke-opacity: 1; paint-order: stroke;"></path></g><g transform="translate(0,0)" id="draw-line" class="s-PS9EmLP6S-MV" style="display: inline;"><path d="M 375.5 100 L 375.5 567.4584 A 141.16666 141.16666 0 0, 0 416.84674 667.27826 L 418.86206 676.08136 L 420.20032 674.5951 L 418.26093 665.8641 A 139.16666 139.16666 0 0, 1 377.5 567.4584 L 377.5 100 Z 
M 324.5 100 L 324.5 567.4584 A 192.16666 192.16666 0 0, 0 380.7843 703.3407 L 391.4277 706.5503 L 390.08942 708.0366 L 379.37006 704.75494 A 194.16666 194.16666 0 0, 1 322.5 567.4584 L 322.5 100 Z 
" id="path5046" class="s-PS9EmLP6S-MV" style="opacity: 1; fill: black; stroke: black; stroke-width: 0; stroke-linecap: round; stroke-linejoin: round; stroke-miterlimit: 4; stroke-dasharray: none; stroke-opacity: 1; paint-order: stroke;"></path></g><g transform="translate(0,0)" id="draw-line" class="s-PS9EmLP6S-MV" style="display: inline;"><path d="M 418.86206 676.08136 A 146.16666 146.16666 0 0, 0 516.6666 713.625 L 1079.7415 713.625 L 1079.7415 711.625 L 516.6666 711.625 A 144.16666 144.16666 0 0, 1 420.20032 674.5951 Z 
M 391.4277 706.5503 A 187.16666 187.16666 0 0, 0 516.6666 754.625 L 1079.7415 754.625 L 1079.7415 756.625 L 516.6666 756.625 A 189.16666 189.16666 0 0, 1 390.08942 708.0366 Z 
" id="path5046" class="s-PS9EmLP6S-MV" style="opacity: 1; fill: black; stroke: black; stroke-width: 0; stroke-linecap: round; stroke-linejoin: round; stroke-miterlimit: 4; stroke-dasharray: none; stroke-opacity: 1; paint-order: stroke;"></path></g><g transform="translate(0,0)" id="draw-line-outline" class="s-PS9EmLP6S-MV" style="display: inline;"><path d="M 262.5 100 L 262.5 193.49167 L 288.75 193.49167 L 288.75 329.47955 L 306.25 329.47955 L 306.25 567.4584 A 210.41666 210.41666 0 0, 0 411.4583 749.6846 L 416.4583 741.0243 A 200.41666 200.41666 0 0, 0 516.6666 767.875 L 1079.7415 767.875 L 1079.7415 767.875 M 437.5 100 L 437.5 193.49167 L 411.25 193.49167 L 411.25 329.47955 L 393.75 329.47955 L 393.75 567.4584 A 122.91666 122.91666 0 0, 0 455.2083 673.90735 L 450.2083 682.56757 A 132.91666 132.91666 0 0, 0 516.6666 700.375 L 1079.7415 700.375 L 1079.7415 700.375 " id="path5046" class="s-PS9EmLP6S-MV" style="opacity: 1; fill: none; stroke: black; stroke-width: 1; stroke-linecap: round; stroke-linejoin: round; stroke-miterlimit: 4; stroke-dasharray: none; stroke-opacity: 1; paint-order: stroke;"></path></g><g transform="translate(0,0)" id="draw-line" class="s-PS9EmLP6S-MV" style="display: inline;"><path d="" id="path5046" class="s-PS9EmLP6S-MV" style="opacity: 1; fill: none; stroke: black; stroke-width: 1; stroke-linecap: round; stroke-linejoin: round; stroke-miterlimit: 4; stroke-dasharray: none; stroke-opacity: 1; paint-order: stroke;"></path></g><g transform="translate(0,0)" id="draw-line" class="s-PS9EmLP6S-MV" style="display: inline;"><path d="" id="path5046" class="s-PS9EmLP6S-MV" style="opacity: 1; fill: black; stroke: black; stroke-width: 1; stroke-linecap: round; stroke-linejoin: round; stroke-miterlimit: 4; stroke-dasharray: none; stroke-opacity: 1; paint-order: stroke;"></path></g><g transform="translate(0,0)" id="draw-line" class="s-PS9EmLP6S-MV" style="display: inline;"><path d="M 414.875 100 M 416.875 193.49167 L 437.5 193.49167 L 416.875 183.17917 Z 
Z 
M 285.125 100 M 283.125 193.49167 L 262.5 193.49167 L 283.125 183.17917 Z 
Z 
M 396.125 100 M 398.125 329.47955 L 411.25 329.47955 L 398.125 322.91705 Z 
Z 
M 303.875 100 M 301.875 329.47955 L 288.75 329.47955 L 301.875 322.91705 Z 
Z 
M 455.2083 673.90735 L 452.3958 678.7787 A 128.54166 128.54166 0 0, 1 447.57516 675.85266 Z 
Z 
M 411.4583 749.6846 L 414.2708 744.8132 A 204.79166 204.79166 0 0, 1 409.534 741.9927 Z 
Z 
Z 
Z 
M 418.86206 676.08136 M 1079.7415 711.625 L 1079.7415 700.375 L 1074.1165 711.625 Z 
Z 
M 391.4277 706.5503 M 1079.7415 756.625 L 1079.7415 767.875 L 1074.1165 756.625 Z 
Z 
" id="path5046" class="s-PS9EmLP6S-MV" style="opacity: 1; fill: black; stroke: black; stroke-width: 1; stroke-linecap: round; stroke-linejoin: round; stroke-miterlimit: 4; stroke-dasharray: none; stroke-opacity: 1; paint-order: stroke;"></path></g><g transform="translate(0,0)" id="draw-line" class="s-PS9EmLP6S-MV" style="display: inline;"><path d="" id="path5046" class="s-PS9EmLP6S-MV" style="opacity: 1; fill: none; stroke: black; stroke-width: 1; stroke-linecap: round; stroke-linejoin: round; stroke-miterlimit: 4; stroke-dasharray: none; stroke-opacity: 1; paint-order: stroke;"></path></g><g transform="translate(0,0)" id="draw-line" class="s-PS9EmLP6S-MV" style="display: inline;"><path d="" id="path5046" class="s-PS9EmLP6S-MV" style="opacity: 1; fill: none; stroke: black; stroke-width: 1; stroke-linecap: round; stroke-linejoin: round; stroke-miterlimit: 4; stroke-dasharray: none; stroke-opacity: 1; paint-order: stroke;"></path></g><g transform="translate(0,0)" id="draw-line" class="s-PS9EmLP6S-MV" style="display: inline;"><path d="" id="path5046" class="s-PS9EmLP6S-MV" style="opacity: 1; fill: none; stroke: black; stroke-width: 1; stroke-linecap: round; stroke-linejoin: round; stroke-miterlimit: 4; stroke-dasharray: none; stroke-opacity: 1; paint-order: stroke;"></path></g><g transform="translate(0,0)" id="draw-line" class="s-PS9EmLP6S-MV" style="display: inline;"><path d="" id="path5046" class="s-PS9EmLP6S-MV" style="opacity: 1; fill: none; stroke: black; stroke-width: 1; stroke-linecap: round; stroke-linejoin: round; stroke-miterlimit: 4; stroke-dasharray: 4; stroke-opacity: 1; paint-order: stroke;"></path></g></svg>
