<?xml version="1.0" encoding="UTF-8" standalone="no"?>
<!-- Created with Inkscape (http://www.inkscape.org/) -->

<svg
   width="249.89525mm"
   height="28.281778mm"
   viewBox="0 0 249.89525 28.281778"
   version="1.1"
   id="svg5"
   inkscape:version="1.1.1 (3bf5ae0d25, 2021-09-20)"
   sodipodi:docname="drawing.svg"
   xmlns:inkscape="http://www.inkscape.org/namespaces/inkscape"
   xmlns:sodipodi="http://sodipodi.sourceforge.net/DTD/sodipodi-0.dtd"
   xmlns="http://www.w3.org/2000/svg"
   xmlns:svg="http://www.w3.org/2000/svg">
  <sodipodi:namedview
     id="namedview7"
     pagecolor="#ffffff"
     bordercolor="#666666"
     borderopacity="1.0"
     inkscape:pageshadow="2"
     inkscape:pageopacity="0.0"
     inkscape:pagecheckerboard="0"
     inkscape:document-units="mm"
     showgrid="false"
     inkscape:zoom="1.0998546"
     inkscape:cx="215.93763"
     inkscape:cy="489.61017"
     inkscape:window-width="3332"
     inkscape:window-height="1417"
     inkscape:window-x="2660"
     inkscape:window-y="-8"
     inkscape:window-maximized="1"
     inkscape:current-layer="layer1"
     fit-margin-top="0"
     fit-margin-left="0"
     fit-margin-right="0"
     fit-margin-bottom="0" />
  <defs
     id="defs2" />
  <g
     inkscape:label="Layer 1"
     inkscape:groupmode="layer"
     id="layer1"
     transform="translate(-0.73600441,-0.77396017)">
    <path
       d="m 46.565388,14.988534 v 0.69745 h -9.431073 v 8.629911 h 10.748697 v 0.69771 H 36.436609 V 6.2033136 h 11.446403 v 0.697706 H 37.134315 v 8.0875144 z m 93.262982,0 v 0.69745 h -9.43108 v 8.629911 h 10.7487 v 0.69771 H 129.69985 V 6.2033136 h 11.44614 v 0.697706 h -10.7487 v 8.0875144 z m 92.84971,0 v 0.69745 H 223.247 v 8.629911 h 10.7487 v 0.69771 H 222.5493 V 6.2033136 h 11.4464 v 0.697706 H 223.247 V 14.988534 Z M 179.01184,6.2033136 h 0.69771 V 18.941674 c 0,1.989494 -0.57706,3.541894 -1.73117,4.657201 -0.77794,0.743029 -1.74789,1.254077 -2.80061,1.47558 -0.62031,0.135934 -1.25385,0.202228 -1.88886,0.19765 -0.66219,0.0052 -1.3227,-0.06737 -1.96797,-0.21617 -1.02301,-0.22877 -1.96413,-0.73258 -2.72177,-1.45706 -0.79846,-0.779641 -1.34348,-1.78179 -1.56396,-2.875761 -0.12102,-0.568627 -0.18141,-1.14848 -0.18018,-1.72984 V 6.2033136 h 0.69771 V 18.915754 c -0.005,0.596713 0.066,1.191637 0.21167,1.77032 0.22376,0.89902 0.69412,1.717693 1.3581,2.363791 1.04634,1.016353 2.43514,1.52453 4.1664,1.52453 0.60734,0.0051 1.21286,-0.06695 1.80207,-0.21431 0.88808,-0.220195 1.70173,-0.672354 2.35771,-1.31022 0.73994,-0.727783 1.2377,-1.665853 1.42557,-2.686581 0.0943,-0.481045 0.14042,-0.970302 0.13758,-1.4605 z m -54.46687,18.8102914 -4.99956,-8.048631 h -6.52436 v 8.048631 H 112.3236 V 6.2033136 h 5.9944 c 1.62102,0 2.95743,0.359481 4.00924,1.078442 0.17176,0.117366 0.33644,0.244764 0.49318,0.381529 0.93005,0.808826 1.51302,1.944647 1.62798,3.1718254 0.0305,0.263655 0.0455,0.528868 0.045,0.794279 0,1.283405 -0.39837,2.405237 -1.19512,3.365495 -0.76632,0.942514 -1.8463,1.577692 -3.04245,1.78938 l 5.0255,8.048631 v 0.18071 z m 125.22492,0 -4.99956,-8.048631 h -6.52436 v 8.048631 h -0.69744 V 6.2033136 h 5.9944 c 1.62101,0 2.95742,0.359481 4.00923,1.078442 0.17175,0.117366 0.33643,0.244764 0.49318,0.381529 0.93004,0.808826 1.51302,1.944647 1.62798,3.1718254 0.0305,0.263655 0.0455,0.528868 0.045,0.794279 0,1.283405 -0.39837,2.405237 -1.19512,3.365495 -0.76632,0.942514 -1.8463,1.577692 -3.04245,1.78938 l 5.0255,8.048631 v 0.18071 z m -164.89945,0 H 78.811482 V 6.2033136 h 4.947973 c 2.023886,0 3.554765,0.411251 4.592637,1.233752 0.791067,0.627113 1.315647,1.530241 1.468438,2.528094 0.06043,0.3490594 0.09,0.7027624 0.08837,1.0570104 0.0031,0.433976 -0.04483,0.866812 -0.142875,1.289579 -0.128509,0.558921 -0.374958,1.083932 -0.722842,1.539875 -0.466039,0.601504 -1.104787,1.046201 -1.830651,1.2745 -0.200077,0.066 -0.404125,0.119282 -0.610923,0.15954 1.188509,0.154873 2.178932,0.66949 2.971271,1.54385 0.76757,0.81118 1.193285,1.886789 1.188773,3.00355 0.0053,0.560789 -0.06842,1.11953 -0.219075,1.659731 -0.231787,0.824447 -0.696225,1.564644 -1.337733,2.13201 -0.590946,0.517593 -1.292278,0.893415 -2.050521,1.09881 -0.507295,0.144993 -1.062302,0.23566 -1.665023,0.272 -0.20606,0.0122 -0.41244,0.0182 -0.618861,0.018 z M 52.210802,6.2033136 V 24.315895 h 9.650678 v 0.69771 H 51.500396 V 6.2033136 Z m 13.655676,0 V 24.315895 h 9.650412 v 0.69771 H 65.155807 V 6.2033136 Z m 126.426392,0 V 24.315895 h 9.65041 v 0.69771 H 191.5822 V 6.2033136 Z m 18.21577,18.8102914 h -5.27077 V 6.2033136 h 5.20621 c 0.96801,-0.0078 1.92928,0.161601 2.83633,0.499798 0.38654,0.146647 0.76019,0.325241 1.11707,0.533929 1.17894,0.687935 2.14126,1.69279 2.7776,2.9003634 0.5734,1.072721 0.91461,2.254113 1.00145,3.467364 0.0188,0.236807 0.0295,0.47419 0.032,0.711729 v 2.441837 c 0.006,0.887921 -0.11155,1.772356 -0.34845,2.62811 -0.15694,0.557196 -0.37135,1.096579 -0.63977,1.60946 -0.62491,1.221099 -1.58075,2.241761 -2.75828,2.945341 -1.15549,0.687732 -2.47254,1.057097 -3.81714,1.07051 -0.0454,10e-4 -0.0908,0.0017 -0.13626,0.002 z m -102.4226,-10.81326 v 2.816489 c 0.004,0.769476 -0.0684,1.537447 -0.21616,2.29262 -0.13771,0.699812 -0.35788,1.380836 -0.65591,2.028821 -0.3228,0.710667 -0.76096,1.363032 -1.29672,1.93067 -0.35575,0.372292 -0.75537,0.700035 -1.1901,0.97604 -0.92146,0.580759 -1.9723,0.924525 -3.05884,1.00066 -0.22022,0.01777 -0.44106,0.02661 -0.66199,0.0265 -0.86111,0.0098 -1.717044,-0.134236 -2.527565,-0.42519 -1.013712,-0.378833 -1.913618,-1.010771 -2.614083,-1.83568 -0.775318,-0.90697 -1.328075,-1.982496 -1.614223,-3.140871 -0.202142,-0.77364 -0.316619,-1.61766 -0.34343,-2.53206 -0.0041,-0.141603 -0.0061,-0.283258 -0.0061,-0.42492 v -2.713039 c -0.0038,-0.769733 0.0692,-1.537925 0.218017,-2.293144 0.138215,-0.697235 0.357732,-1.375853 0.65405,-2.0219454 0.320727,-0.708698 0.756368,-1.359522 1.289314,-1.926167 0.359346,-0.37714 0.763762,-0.708599 1.204119,-0.986896 0.953105,-0.598924 2.042632,-0.946138 3.166531,-1.009121 0.18231,-0.01212 0.36498,-0.01812 0.54769,-0.01799 0.75082,-0.0058 1.49807,0.103816 2.21562,0.324908 0.53224,0.167349 1.04039,0.403408 1.51156,0.702204 0.95607,0.610215 1.73766,1.457804 2.26854,2.460096 0.082,0.150691 0.15908,0.303963 0.23125,0.459581 0.39324,0.8589304 0.65442,1.7723544 0.7747,2.7093344 0.0703,0.530124 0.10498,1.064373 0.10371,1.599141 z M 210.54753,6.9010196 h -4.61222 V 24.315895 h 4.50877 c 1.26479,0.0143 2.50928,-0.318533 3.59807,-0.96229 1.08053,-0.641203 1.95995,-1.57213 2.53868,-2.687371 0.54998,-1.043637 0.86292,-2.195764 0.91651,-3.37423 0.008,-0.151917 0.0126,-0.304007 0.0135,-0.45614 v -2.415915 c 0.006,-0.860033 -0.11836,-1.716007 -0.3683,-2.538941 -0.13719,-0.443513 -0.3144,-0.873642 -0.52944,-1.285082 -0.56875,-1.1134874 -1.43671,-2.0463274 -2.50639,-2.6937224 -1.07227,-0.65017 -2.25867,-0.983898 -3.55918,-1.001184 z M 107.38833,16.913384 v -2.738968 c 0,-1.994958 -0.44414,-3.643489 -1.33244,-4.9455924 -0.12406,-0.181694 -0.25714,-0.357068 -0.39873,-0.525462 -1.01656,-1.224239 -2.50121,-1.964401 -4.09072,-2.039408 -0.19493,-0.01428 -0.39033,-0.02134 -0.58579,-0.02117 -0.73629,-0.0081 -1.46882,0.106088 -2.167726,0.337873 -0.965157,0.331639 -1.820029,0.923283 -2.470415,1.709737 -0.649627,0.782357 -1.119242,1.6980124 -1.375569,2.6820824 -0.188912,0.687563 -0.302506,1.439509 -0.340783,2.255837 -0.0099,0.212051 -0.01486,0.424305 -0.01482,0.636588 v 2.75193 c 0,1.4986 0.260526,2.822753 0.781579,3.97246 0.266264,0.599609 0.621646,1.155518 1.0541,1.648884 0.343524,0.387575 0.738722,0.72606 1.174486,1.00594 0.764367,0.48615 1.631121,0.788291 2.532058,0.88265 0.28311,0.03218 0.56783,0.04808 0.85276,0.0476 0.71679,0.0076 1.43027,-0.09826 2.11402,-0.31353 0.99908,-0.324081 1.88409,-0.928256 2.54979,-1.74069 0.62707,-0.763236 1.08412,-1.651454 1.34064,-2.605364 0.25171,-0.89076 0.37756,-1.891237 0.37756,-3.00143 z M 185.89789,6.2033136 V 25.013605 h -0.69771 V 6.2033136 Z m -72.87684,0.697706 v 9.3662544 h 5.9301 c 0.52952,0.0047 1.05721,-0.06284 1.56845,-0.20082 0.73173,-0.198978 1.39961,-0.583687 1.93887,-1.11681 0.84459,-0.82514 1.32489,-1.953268 1.33429,-3.133988 0.002,-0.06207 0.003,-0.124166 0.003,-0.186267 0.005,-0.512883 -0.065,-1.023743 -0.20796,-1.516327 -0.22416,-0.7591244 -0.6662,-1.4357604 -1.27132,-1.9460114 -0.88812,-0.760236 -2.07151,-1.178101 -3.55018,-1.253595 -0.16647,-0.0084 -0.33312,-0.01254 -0.4998,-0.01244 z m 125.22492,0 v 9.3662544 h 5.9301 c 0.52952,0.0047 1.0572,-0.06284 1.56845,-0.20082 0.73173,-0.198978 1.39961,-0.583687 1.93887,-1.11681 0.84459,-0.82514 1.32489,-1.953268 1.33429,-3.133988 0.002,-0.06207 0.003,-0.124166 0.003,-0.186267 0.005,-0.512883 -0.065,-1.023743 -0.20796,-1.516327 -0.22416,-0.7591244 -0.66621,-1.4357604 -1.27132,-1.9460114 -0.88812,-0.760236 -2.07151,-1.178101 -3.55018,-1.253595 -0.16647,-0.0084 -0.33312,-0.01254 -0.4998,-0.01244 z M 85.219161,15.724874 h -5.710237 v 8.591021 h 5.439039 c 0.507855,0.0034 1.014826,-0.04286 1.513681,-0.13811 0.894821,-0.177273 1.641211,-0.5252 2.239169,-1.04378 0.71044,-0.616493 1.171827,-1.47079 1.297781,-2.402951 0.04446,-0.288541 0.06631,-0.580115 0.06535,-0.87206 0.0072,-0.559399 -0.105099,-1.113891 -0.329407,-1.6264 -0.230368,-0.504138 -0.567663,-0.952118 -0.988483,-1.31286 -0.549371,-0.474577 -1.203099,-0.812637 -1.90791,-0.98663 -0.492476,-0.128587 -1.032137,-0.197997 -1.618983,-0.20823 z M 79.508924,6.9010196 v 8.1261444 h 4.508764 c 1.713971,0 3.005931,-0.329405 3.875881,-0.988215 0.575459,-0.439223 0.981859,-1.063447 1.150673,-1.767416 0.102659,-0.390701 0.153988,-0.824354 0.153988,-1.300957 0.01505,-0.636638 -0.112319,-1.2685964 -0.372798,-1.8497024 -0.566385,-1.193623 -1.778,-1.906146 -3.634846,-2.137568 -0.423503,-0.05111 -0.849525,-0.07859 -1.276085,-0.08229 z"
       vector-effect="non-scaling-stroke"
       id="path9"
       style="font-size:12px;fill:#FFFFFF;fill-rule:evenodd;stroke:#FFFFFF;stroke-width:0.0661458mm;stroke-linecap:round"
       sodipodi:nodetypes="cccccccccccccccccccccccccccccccccccccccccsccccccccccccccccccccccccscccccccccccccccsscccccccccccscccccccccccccscccccccccccccccccccccccccccccccccccccccccccccccccccccccccccccccccccccccccccccccscccccccccscccccccccccccccccccccccccccccccccccccccccccccccccccccsccccccc" />
    <path
       d="m 7.7943578,22.627585 1.27899,4.650841 1.2789992,-4.650841 6.666172,-21.82044941 h 1.162579 l 6.62755,21.82044941 1.25968,4.650841 1.31789,-4.650841 5.813431,-21.82044941 h 1.143259 L 26.746718,29.022565 h -1.18215 l -6.99585,-23.5256904 -0.988219,-2.9845 -0.949592,2.9845 L 9.5771178,29.022565 H 8.3949568 L 0.77918781,0.80713559 H 1.9420368 Z"
       style="font-size:12px;vector-effect:non-scaling-stroke;fill:#FFFFFF;fill-rule:evenodd;stroke:#FFFFFF;stroke-width:0.0175011mm;stroke-linecap:round"
       id="path474" />
    <path
       d="m 156.49124,29.022666 h -9.0887 V 0.80723859 h 7.42209 c 0.83895,-0.004 1.67717,0.0504 2.50852,0.16324 0.85582,0.12065001 1.63133,0.30833001 2.32647,0.56303901 0.74046,0.262599 1.43401,0.64225 2.05423,1.124479 1.18641,0.94062 1.97317,2.295142 2.20239,3.791741 0.0907,0.523629 0.13501,1.05423 0.13255,1.585651 0.005,0.651049 -0.0672,1.30039 -0.21431,1.934631 -0.19274,0.8381674 -0.56233,1.6254994 -1.08399,2.3092774 -0.69908,0.90233 -1.65725,1.569432 -2.74611,1.911882 -0.30017,0.099 -0.60629,0.178848 -0.91653,0.239189 1.71938,0.19954 3.30554,1.023691 4.45717,2.31589 1.1513,1.216879 1.78974,2.830409 1.78278,4.505589 0.008,0.841042 -0.1025,1.679012 -0.32836,2.4892 -0.34763,1.236771 -1.04428,2.347172 -2.0066,3.198291 -0.88643,0.776347 -1.93843,1.34004 -3.07577,1.648089 -1.01441,0.29016 -2.15637,0.435239 -3.42583,0.435239 z m 0.52307,-13.933229 h -8.56534 v 12.8868 h 8.15842 c 1.86161,0 3.41163,-0.358601 4.65006,-1.0758 0.34786,-0.200909 0.67583,-0.434438 0.97947,-0.697439 1.06571,-0.924719 1.75785,-2.20616 1.94681,-3.604419 0.0665,-0.432832 0.0992,-0.870191 0.0976,-1.3081 0.0108,-0.838951 -0.15763,-1.670542 -0.49398,-2.439191 -0.34544,-0.75628 -0.85129,-1.428351 -1.48246,-1.969561 -1.3178,-1.156229 -3.08134,-1.753658 -5.29061,-1.79229 z M 148.44897,1.8536586 V 14.042748 h 6.76328 c 2.57086,0 4.50875,-0.494149 5.81368,-1.482461 0.86309,-0.658788 1.47264,-1.595019 1.72587,-2.6508604 0.15417,-0.585959 0.23126,-1.23648 0.23126,-1.951569 0,-3.487909 -2.00387,-5.48146 -6.01161,-5.980639 -0.63529,-0.0767 -1.27436,-0.11797 -1.91426,-0.12356 z"
       style="font-size:12px;vector-effect:non-scaling-stroke;fill:#FFFFFF;fill-rule:evenodd;stroke:#FFFFFF;stroke-width:0.0175011mm;stroke-linecap:round"
       id="path1016" />
  </g>
</svg>
