<!DOCTYPE svg>
<svg xmlns="http://www.w3.org/2000/svg" id="svg" version="1.1" height="881" width="1665" class="s-PS9EmLP6S-MV"><style class="s-PS9EmLP6S-MV">.static {
            cursor: not-allowed;
        }
        .draggable .draggable-group{
            cursor: move;
        }
         *{}</style><script type="text/javascript" class="s-PS9EmLP6S-MV"></script><defs id="defs5040" class="s-PS9EmLP6S-MV"></defs><g class="s-PS9EmLP6S-MV"><text x="832.5" y="40" dominant-baseline="middle" text-anchor="middle" class="s-PS9EmLP6S-MV" style="font-family: Roboto, sans-serif;"></text></g><g class="s-PS9EmLP6S-MV"><text x="832.5" y="80" dominant-baseline="middle" text-anchor="middle" class="s-PS9EmLP6S-MV" style="font-family: Roboto, sans-serif;"></text></g><g transform="translate(0,0)" id="draw-line" class="s-PS9EmLP6S-MV" style="display: inline;"><path d="M 732.5 100.0005 L 732.5 110.01538 L 702.5 110.01538 L 702.5 100.0005 Z 
M 932.5 100.0005 L 932.5 110.01538 L 962.5 110.01538 L 962.5 100.0005 Z 
" id="path5046" class="s-PS9EmLP6S-MV" style="opacity: 1; fill: rgb(135, 135, 135); stroke: black; stroke-width: 0; stroke-linecap: round; stroke-linejoin: round; stroke-miterlimit: 4; stroke-dasharray: none; stroke-opacity: 1; paint-order: stroke;"></path></g><g transform="translate(0,0)" id="draw-line" class="s-PS9EmLP6S-MV" style="display: inline;"><path d="M 765.625 100.0005 L 765.625 345.37692 L 745 345.37692 L 745 110.01538 L 734.5 110.01538 L 732.5 100.0005 Z 
M 899.375 100.0005 L 899.375 345.37692 L 920 345.37692 L 920 110.01538 L 930.5 110.01538 L 932.5 100.0005 Z 
" id="path5046" class="s-PS9EmLP6S-MV" style="opacity: 1; fill: rgb(135, 135, 135); stroke: black; stroke-width: 0; stroke-linecap: round; stroke-linejoin: round; stroke-miterlimit: 4; stroke-dasharray: none; stroke-opacity: 1; paint-order: stroke;"></path></g><g transform="translate(0,0)" id="draw-line" class="s-PS9EmLP6S-MV" style="display: inline;"><path d="M 784.375 250.23077 L 784.375 550.6923 L 771.25 550.6923 L 771.25 345.37692 L 767.625 345.37692 L 765.625 250.23077 Z 
M 880.625 250.23077 L 880.625 550.6923 L 893.75 550.6923 L 893.75 345.37692 L 897.375 345.37692 L 899.375 250.23077 Z 
" id="path5046" class="s-PS9EmLP6S-MV" style="opacity: 1; fill: rgb(135, 135, 135); stroke: black; stroke-width: 0; stroke-linecap: round; stroke-linejoin: round; stroke-miterlimit: 4; stroke-dasharray: none; stroke-opacity: 1; paint-order: stroke;"></path></g><g transform="translate(0,0)" id="draw-line" class="s-PS9EmLP6S-MV" style="display: inline;"><path d="M 794.375 600.7693 L 794.375 700.9231 L 790 700.9231 L 790 600.7693 Z 
M 870.625 600.7693 L 870.625 700.9231 L 875 700.9231 L 875 600.7693 Z 
" id="path5046" class="s-PS9EmLP6S-MV" style="opacity: 1; fill: rgb(135, 135, 135); stroke: black; stroke-width: 0; stroke-linecap: round; stroke-linejoin: round; stroke-miterlimit: 4; stroke-dasharray: none; stroke-opacity: 1; paint-order: stroke;"></path></g><g transform="translate(0,0)" id="draw-line" class="s-PS9EmLP6S-MV" style="display: inline;"><path d="M 930.5 100 L 930.5 110.01538 L 932.5 110.01538 L 932.5 100 Z 
M 734.5 100 L 734.5 110.01538 L 732.5 110.01538 L 732.5 100 Z 
" id="path5046" class="s-PS9EmLP6S-MV" style="opacity: 1; fill: none; stroke: black; stroke-width: 1; stroke-linecap: round; stroke-linejoin: round; stroke-miterlimit: 4; stroke-dasharray: none; stroke-opacity: 1; paint-order: stroke;"></path></g><g transform="translate(0,0)" id="draw-line" class="s-PS9EmLP6S-MV" style="display: inline;"><path d="M 897.375 100 L 897.375 345.37692 L 899.375 345.37692 L 899.375 100 Z 
M 767.625 100 L 767.625 345.37692 L 765.625 345.37692 L 765.625 100 Z 
" id="path5046" class="s-PS9EmLP6S-MV" style="opacity: 1; fill: none; stroke: black; stroke-width: 1; stroke-linecap: round; stroke-linejoin: round; stroke-miterlimit: 4; stroke-dasharray: none; stroke-opacity: 1; paint-order: stroke;"></path></g><g transform="translate(0,0)" id="draw-line" class="s-PS9EmLP6S-MV" style="display: inline;"><path d="M 878.625 100 L 878.625 550.6923 L 880.625 550.6923 L 880.625 100 Z 
M 786.375 100 L 786.375 550.6923 L 784.375 550.6923 L 784.375 100 Z 
" id="path5046" class="s-PS9EmLP6S-MV" style="opacity: 1; fill: none; stroke: black; stroke-width: 1; stroke-linecap: round; stroke-linejoin: round; stroke-miterlimit: 4; stroke-dasharray: none; stroke-opacity: 1; paint-order: stroke;"></path></g><g transform="translate(0,0)" id="draw-line" class="s-PS9EmLP6S-MV" style="display: inline;"><path d="M 868.625 475.57693 L 868.625 700.9231 L 870.625 700.9231 L 870.625 475.57693 Z 
M 796.375 475.57693 L 796.375 700.9231 L 794.375 700.9231 L 794.375 475.57693 Z 
" id="path5046" class="s-PS9EmLP6S-MV" style="opacity: 1; fill: none; stroke: black; stroke-width: 1; stroke-linecap: round; stroke-linejoin: round; stroke-miterlimit: 4; stroke-dasharray: none; stroke-opacity: 1; paint-order: stroke;"></path></g><g transform="translate(0,0)" id="draw-line" class="s-PS9EmLP6S-MV" style="display: inline;"><path d="M 930.5 100 L 930.5 110.01538 L 932.5 110.01538 L 932.5 100 Z 
M 734.5 100 L 734.5 110.01538 L 732.5 110.01538 L 732.5 100 Z 
" id="path5046" class="s-PS9EmLP6S-MV" style="opacity: 1; fill: black; stroke: black; stroke-width: 0; stroke-linecap: round; stroke-linejoin: round; stroke-miterlimit: 4; stroke-dasharray: none; stroke-opacity: 1; paint-order: stroke;"></path></g><g transform="translate(0,0)" id="draw-line" class="s-PS9EmLP6S-MV" style="display: inline;"><path d="M 897.375 100 L 897.375 345.37692 L 899.375 345.37692 L 899.375 100 Z 
M 767.625 100 L 767.625 345.37692 L 765.625 345.37692 L 765.625 100 Z 
" id="path5046" class="s-PS9EmLP6S-MV" style="opacity: 1; fill: black; stroke: black; stroke-width: 0; stroke-linecap: round; stroke-linejoin: round; stroke-miterlimit: 4; stroke-dasharray: none; stroke-opacity: 1; paint-order: stroke;"></path></g><g transform="translate(0,0)" id="draw-line" class="s-PS9EmLP6S-MV" style="display: inline;"><path d="M 878.625 100 L 878.625 550.6923 L 880.625 550.6923 L 880.625 100 Z 
M 786.375 100 L 786.375 550.6923 L 784.375 550.6923 L 784.375 100 Z 
" id="path5046" class="s-PS9EmLP6S-MV" style="opacity: 1; fill: black; stroke: black; stroke-width: 0; stroke-linecap: round; stroke-linejoin: round; stroke-miterlimit: 4; stroke-dasharray: none; stroke-opacity: 1; paint-order: stroke;"></path></g><g transform="translate(0,0)" id="draw-line" class="s-PS9EmLP6S-MV" style="display: inline;"><path d="M 868.625 475.57693 L 868.625 700.9231 L 870.625 700.9231 L 870.625 475.57693 Z 
M 796.375 475.57693 L 796.375 700.9231 L 794.375 700.9231 L 794.375 475.57693 Z 
" id="path5046" class="s-PS9EmLP6S-MV" style="opacity: 1; fill: black; stroke: black; stroke-width: 0; stroke-linecap: round; stroke-linejoin: round; stroke-miterlimit: 4; stroke-dasharray: none; stroke-opacity: 1; paint-order: stroke;"></path></g><g transform="translate(0,0)" id="draw-line-outline" class="s-PS9EmLP6S-MV" style="display: inline;"><path d="M 702.5 100 L 702.5 110.01538 L 745 110.01538 L 745 345.37692 L 771.25 345.37692 L 771.25 550.6923 L 790 550.6923 L 790 700.9231 L 790 700.9231 M 962.5 100 L 962.5 110.01538 L 920 110.01538 L 920 345.37692 L 893.75 345.37692 L 893.75 550.6923 L 875 550.6923 L 875 700.9231 L 875 700.9231 " id="path5046" class="s-PS9EmLP6S-MV" style="opacity: 1; fill: none; stroke: black; stroke-width: 1; stroke-linecap: round; stroke-linejoin: round; stroke-miterlimit: 4; stroke-dasharray: none; stroke-opacity: 1; paint-order: stroke;"></path></g><g transform="translate(0,0)" id="draw-line" class="s-PS9EmLP6S-MV" style="display: inline;"><path d="M 796.375 475.57693 L 786.375 475.57693 L 786.375 470.57693 L 796.375 470.57693 L 796.375 475.57693 M 796.375 475.57693 L 786.375 470.57693 M 796.375 470.57693 L 786.375 475.57693 M 868.625 475.57693 L 878.625 475.57693 L 878.625 470.57693 L 868.625 470.57693 L 868.625 475.57693 M 868.625 475.57693 L 878.625 470.57693 M 868.625 470.57693 L 878.625 475.57693 " id="path5046" class="s-PS9EmLP6S-MV" style="opacity: 1; fill: none; stroke: black; stroke-width: 1; stroke-linecap: round; stroke-linejoin: round; stroke-miterlimit: 4; stroke-dasharray: none; stroke-opacity: 1; paint-order: stroke;"></path></g><g transform="translate(0,0)" id="draw-line" class="s-PS9EmLP6S-MV" style="display: inline;"><path d="M 842 100 L 842 720.95386 M 823 100 L 823 720.95386 M 796.375 690.9154 L 796.375 695.9154 M 823 690.9154 L 823 695.9154 L 796.375 690.9154 L 823 690.9154 L 796.375 695.9154 L 823 695.9154 M 868.625 690.9154 L 868.625 695.9154 M 842 690.9154 L 842 695.9154 L 868.625 690.9154 L 842 690.9154 L 868.625 695.9154 L 842 695.9154 " id="path5046" class="s-PS9EmLP6S-MV" style="opacity: 1; fill: none; stroke: black; stroke-width: 1; stroke-linecap: round; stroke-linejoin: round; stroke-miterlimit: 4; stroke-dasharray: none; stroke-opacity: 1; paint-order: stroke;"></path></g><g transform="translate(0,0)" id="draw-line" class="s-PS9EmLP6S-MV" style="display: inline;"><path d="M 842 100 L 842 720.95386 M 823 100 L 823 720.95386 M 796.375 690.9154 L 796.375 695.9154 M 823 690.9154 L 823 695.9154 L 796.375 690.9154 L 823 690.9154 L 796.375 695.9154 L 823 695.9154 M 868.625 690.9154 L 868.625 695.9154 M 842 690.9154 L 842 695.9154 L 868.625 690.9154 L 842 690.9154 L 868.625 695.9154 L 842 695.9154 " id="path5046" class="s-PS9EmLP6S-MV" style="opacity: 1; fill: none; stroke: black; stroke-width: 0; stroke-linecap: round; stroke-linejoin: round; stroke-miterlimit: 4; stroke-dasharray: none; stroke-opacity: 1; paint-order: stroke;"></path></g><g transform="translate(0,0)" id="draw-line" class="s-PS9EmLP6S-MV" style="display: inline;"><path d="" id="path5046" class="s-PS9EmLP6S-MV" style="opacity: 1; fill: black; stroke: black; stroke-width: 1; stroke-linecap: round; stroke-linejoin: round; stroke-miterlimit: 4; stroke-dasharray: none; stroke-opacity: 1; paint-order: stroke;"></path></g><g transform="translate(0,0)" id="draw-line" class="s-PS9EmLP6S-MV" style="display: inline;"><path d="M 930.5 100 M 932.5 110.01538 L 962.5 110.01538 L 932.5 95.01539 Z 
Z 
M 734.5 100 M 732.5 110.01538 L 702.5 110.01538 L 732.5 95.01539 Z 
Z 
M 897.375 100 M 899.375 345.37692 L 920 345.37692 L 899.375 335.06445 Z 
Z 
M 767.625 100 M 765.625 345.37692 L 745 345.37692 L 765.625 335.06445 Z 
Z 
M 878.625 100 M 880.625 550.6923 L 893.75 550.6923 L 880.625 544.12976 Z 
Z 
M 786.375 100 M 784.375 550.6923 L 771.25 550.6923 L 784.375 544.12976 Z 
Z 
M 868.625 475.57693 M 870.625 700.9231 L 875 700.9231 L 870.625 698.7356 Z 
Z 
M 796.375 475.57693 M 794.375 700.9231 L 790 700.9231 L 794.375 698.7356 Z 
Z 
" id="path5046" class="s-PS9EmLP6S-MV" style="opacity: 1; fill: black; stroke: black; stroke-width: 1; stroke-linecap: round; stroke-linejoin: round; stroke-miterlimit: 4; stroke-dasharray: none; stroke-opacity: 1; paint-order: stroke;"></path></g><g transform="translate(0,0)" id="draw-line" class="s-PS9EmLP6S-MV" style="display: inline;"><path d="" id="path5046" class="s-PS9EmLP6S-MV" style="opacity: 1; fill: none; stroke: black; stroke-width: 1; stroke-linecap: round; stroke-linejoin: round; stroke-miterlimit: 4; stroke-dasharray: none; stroke-opacity: 1; paint-order: stroke;"></path></g><g transform="translate(0,0)" id="draw-line" class="s-PS9EmLP6S-MV" style="display: inline;"><path d="" id="path5046" class="s-PS9EmLP6S-MV" style="opacity: 1; fill: none; stroke: black; stroke-width: 1; stroke-linecap: round; stroke-linejoin: round; stroke-miterlimit: 4; stroke-dasharray: none; stroke-opacity: 1; paint-order: stroke;"></path></g><g transform="translate(0,0)" id="draw-line" class="s-PS9EmLP6S-MV" style="display: inline;"><path d="" id="path5046" class="s-PS9EmLP6S-MV" style="opacity: 1; fill: none; stroke: black; stroke-width: 1; stroke-linecap: round; stroke-linejoin: round; stroke-miterlimit: 4; stroke-dasharray: none; stroke-opacity: 1; paint-order: stroke;"></path></g><g transform="translate(0,0)" id="draw-line" class="s-PS9EmLP6S-MV" style="display: inline;"><path d="M 790 700.9231 L 790 751 L 832.5 751 M 875 700.9231 L 875 751 L 832.5 751 " id="path5046" class="s-PS9EmLP6S-MV" style="opacity: 1; fill: none; stroke: black; stroke-width: 1; stroke-linecap: round; stroke-linejoin: round; stroke-miterlimit: 4; stroke-dasharray: 4; stroke-opacity: 1; paint-order: stroke;"></path></g></svg>
